# xmcd
#
# Track frame offsets:
#	150
#	14735
#	39360
#	58311
#	81771
#	100402
#	117089
#	138540
#	159306
#	176862
#	196830
#	217135
#	235087
#	268907
#	286253
#
# Disc length: 3996 seconds
#
# Revision: 0
# Processed by: cddbd v1.5.2PL0 Copyright (c) Steve Scherf et al.
# Submitted via: EasyCDDAExtractor 16.0.6.1
#
DISCID=df0f9a0f
DTITLE=Μπικάκης Στέλιος - Οι μεγάλες επιτυχίες-Σ. Μπικάκης 1
DYEAR=2013
DGENRE=Κρητική
TTITLE0=Να καούν ξερά [Σταμ. Μεσημέρης]
TTITLE1=Γενέθλια [Σ. Μπικάκης/Γ. Σεισάκης-ίδιος]
TTITLE2=Στο γύρο του κορμιού σου [Γ. Γιοκαρίνης-Μιχ. Αβατάγγελος]
TTITLE3=Χίλια φεγγάρια [Σ. Μπικάκης]
TTITLE4=Διαδρομή [Αντ. Ζαχαράκης-Σ. Μπικάκης]
TTITLE5=Τον καινούργιο σου έρωτα [Κ. Μουντάκης/Σ. Μπικάκης-ίδιος]
TTITLE6=Τα τραγούδια μου [Γ. Γιοκαρίνης/Σ. Μπικάκης-ίδιος]
TTITLE7=Το μάθημα [Αντ. Ζαχαράκης-Γ. Κουτάντος]
TTITLE8=Το ζεϊμέκικο του δρόμου [Γ. Γιοκαρίνης/Σ. Μπικάκης-ίδιος]
TTITLE9=Τα όνειρα πεθαίνουν ξημερώματα [Σ. Μπικάκης/Αντ. Ζαχαράκης-ίδιος]
TTITLE10=Αφήνομαι [Σ. Μπικάκης]
TTITLE11=Εγώ φεύγω τώρα, γεια σου [Αντ. Ζαχαράκης/Σ. Μπικάκης-ίδιος]
TTITLE12=Παραδοσιακή συρτά [λαούτο Γ. Μαρκογιαννάκης]
TTITLE13=Μιά βόλτα στο σκοτάδι [Σ. Μπικάκης]
TTITLE14=Βόλτα θα πάρω τα βουνά [παραδοσιακό]
EXTD=
EXTT0=
EXTT1=
EXTT2=
EXTT3=
EXTT4=
EXTT5=
EXTT6=
EXTT7=
EXTT8=
EXTT9=
EXTT10=
EXTT11=
EXTT12=
EXTT13=
EXTT14=
PLAYORDER=
